<svg xmlns="http://www.w3.org/2000/svg" viewBox="0 0 164.5 48.04"><defs><style>.cls-1{fill:#fff;}</style></defs><g id="Слой_2" data-name="Слой 2"><g id="Слой_1-2" data-name="Слой 1"><path class="cls-1" d="M36.53,16.69c-4.75,1.19-8.73-.93-12.58-3S16.32,9.63,11.5,10.33c-5.1.75-9.68,4.33-9.8,7.66-.13,3.48,4.41,7.22,9.72,8s9.1-1.48,12.88-3.67,7.64-4.46,12.48-3.24a18.12,18.12,0,0,1,11.07,7.85A16.31,16.31,0,0,0,48,24,23.91,23.91,0,0,0,44.7,11.8l-.5.41A19.22,19.22,0,0,1,36.53,16.69Z"/><path class="cls-1" d="M23.93,2.74A14.8,14.8,0,0,1,31,1.38a12.73,12.73,0,0,1,1.69.24A24,24,0,0,0,12.28,3.07,7.29,7.29,0,0,0,16.86,4.3,17.72,17.72,0,0,0,23.93,2.74Z"/><path class="cls-1" d="M12.28,8.29a19,19,0,0,1,10.5,2.47C26,12.4,29.24,14.1,33.46,14.19c3.33.08,7.09-1.78,8.16-3.48a1.21,1.21,0,0,0,.2-1.2,10.48,10.48,0,0,0-7.38-5.75c-4.11-1-7.52.11-10.83,1.21S16.88,7.23,13,5.93a14.29,14.29,0,0,1-3-1.44,24.15,24.15,0,0,0-6,6.18l.31-.17A19.27,19.27,0,0,1,12.28,8.29Z"/><path class="cls-1" d="M11.78,31.22a11.42,11.42,0,0,1,2.75-.33c3.64,0,7,1.67,10.36,3.3,3.89,1.92,7.9,3.9,12.37,3.29,4.87-.67,9.09-4,9.21-7.21.13-3.55-4.71-7.65-10.15-8.6-5.66-1-9.45,1.41-13.12,3.73s-7.92,3.92-13.06,2.68c-4.23-1-7.57-3.63-10.07-5.74C0,22.9,0,23.46,0,24A24,24,0,0,0,3.38,36.31l.81-.66C5.93,34.21,8.55,32,11.78,31.22Z"/><path class="cls-1" d="M31.71,43.34a18.38,18.38,0,0,0-7.19,1.58,15.24,15.24,0,0,1-7.19,1.37,18.16,18.16,0,0,1-4.48-1,24,24,0,0,0,23.56-.69,7.5,7.5,0,0,0-4.58-1.26Z"/><path class="cls-1" d="M25.53,36.94c-3.16-1.64-6.88-3.78-11.08-3.86C10,33,6.21,35.92,5.94,37.94s3.62,4.9,8,6c4.08,1,7.47-.11,10.76-1.22a21.93,21.93,0,0,1,7-1.55,11,11,0,0,1,3.52.58,14.5,14.5,0,0,1,3.13,1.55A24.45,24.45,0,0,0,44,37.39c-2.17,1.08-5.07,2.51-8,2.68C32,40.31,28.86,38.67,25.53,36.94Z"/><path class="cls-1" d="M54.82,33.87a2.46,2.46,0,0,0,1.41-.42,1.72,1.72,0,0,0,.55-1.07,12.52,12.52,0,0,0,.11-1.8V18.3q0-.69,0-1.29T57,16l-1.09,0-1.07,0V14.45l3.57,0H62a14.59,14.59,0,0,1,4.74.67,6.11,6.11,0,0,1,3,2,5.55,5.55,0,0,1,1.06,3.39,6.3,6.3,0,0,1-.41,2.39,6.23,6.23,0,0,1-1.51,2.27A7.69,7.69,0,0,1,66,26.82a13.43,13.43,0,0,1-4.54.65,6.8,6.8,0,0,1-.68,0c-.26,0-.5,0-.74,0v3.7c0,.55,0,1,0,1.45a9.91,9.91,0,0,1-.09,1l.91-.05.93,0,.83,0v1.66H54.82Zm5.24-8c.32,0,.6.07.84.08h.88a6.68,6.68,0,0,0,2.93-.62,4.57,4.57,0,0,0,2-1.81,5.36,5.36,0,0,0,.71-2.81A5.79,5.79,0,0,0,67,18.37a3.67,3.67,0,0,0-1.18-1.51,4.85,4.85,0,0,0-1.73-.77A9.28,9.28,0,0,0,62,15.87a2,2,0,0,0-1.3.34,1.62,1.62,0,0,0-.52,1,13.55,13.55,0,0,0-.1,1.75Z"/><path class="cls-1" d="M73,33.92a1.54,1.54,0,0,0,1.24-.41,2,2,0,0,0,.43-1.15c0-.5.08-1.07.08-1.72V24.51c0-.33,0-.68,0-1a8.54,8.54,0,0,1,.11-1.1c-.34,0-.69,0-1.07,0l-1,0V20.9h1a5.21,5.21,0,0,0,1.9-.27,3.06,3.06,0,0,0,1-.56h1c0,.28.07.66.09,1.16s0,1,.06,1.65a7.74,7.74,0,0,1,1.31-1.49,7.44,7.44,0,0,1,1.63-1.08,4.15,4.15,0,0,1,1.82-.42,2.63,2.63,0,0,1,1.56.49A1.86,1.86,0,0,1,84.8,22a1.83,1.83,0,0,1-.16.69,1.57,1.57,0,0,1-.53.67,1.61,1.61,0,0,1-1,.26A1.53,1.53,0,0,1,82,23.15a1.58,1.58,0,0,1-.43-1.21,2.52,2.52,0,0,0-1.42.41,6.06,6.06,0,0,0-1.31,1.14,6.56,6.56,0,0,0-1,1.56l0,6.42c0,.35,0,.72,0,1.09s0,.75-.09,1.13l1,0,.9,0v1.57H73Z"/><path class="cls-1" d="M86.72,33.92A1.57,1.57,0,0,0,88,33.51a2,2,0,0,0,.43-1.15c0-.5.07-1.07.07-1.72V24.51q0-.47,0-1t.09-1.14l-1.07.06-1,.06V20.9a13,13,0,0,0,2.11-.13,6,6,0,0,0,1.23-.31,1.82,1.82,0,0,0,.65-.39h1.1v11.4c0,.35,0,.72,0,1.09a8.62,8.62,0,0,1-.1,1.13l1,0,.91,0v1.57H86.72Zm3.17-16.57a1.68,1.68,0,0,1-1.3-.58,2,2,0,0,1-.53-1.4A1.91,1.91,0,0,1,88.62,14a1.75,1.75,0,0,1,1.27-.58,1.7,1.7,0,0,1,1.29.58,2.16,2.16,0,0,1,0,2.81A1.66,1.66,0,0,1,89.89,17.35Z"/><path class="cls-1" d="M95.46,35.17V33.92a1.56,1.56,0,0,0,1.24-.41,2,2,0,0,0,.43-1.15c.05-.5.07-1.07.07-1.72V24.51c0-.33,0-.68,0-1a8.48,8.48,0,0,1,.1-1.1l-1.06.06-1,.06V20.9a12.68,12.68,0,0,0,2.09-.13,5.65,5.65,0,0,0,1.17-.31,2.07,2.07,0,0,0,.62-.39h1a4.37,4.37,0,0,1,.08.7c0,.26,0,.55,0,.84a8.19,8.19,0,0,1,2.1-1.24,5.91,5.91,0,0,1,2.28-.48,5.13,5.13,0,0,1,2.4.52,3.75,3.75,0,0,1,1.51,1.47,9.49,9.49,0,0,1,2.34-1.42,6.3,6.3,0,0,1,2.54-.57,4.57,4.57,0,0,1,3.75,1.5q1.23,1.5,1.17,5v5.09c0,.35,0,.72,0,1.09s0,.75-.09,1.13l1,0,.9,0v1.57h-6.51V33.92a1.43,1.43,0,0,0,1.17-.41,2.1,2.1,0,0,0,.41-1.15c0-.5.08-1.07.08-1.72V26.38a6.45,6.45,0,0,0-.77-3.44,2.46,2.46,0,0,0-2.25-1.06,3.75,3.75,0,0,0-1.69.35,6.77,6.77,0,0,0-1.45.92,6.65,6.65,0,0,1,.21,1.13,12.44,12.44,0,0,1,.06,1.27v2.94c0,1,0,2,0,3,0,.35,0,.72,0,1.09a8.62,8.62,0,0,1-.1,1.13l1,0,.93,0v1.57h-6.6V33.92a1.49,1.49,0,0,0,1.23-.41,2.1,2.1,0,0,0,.42-1.15c.05-.5.07-1.07.07-1.72V26.35a6.37,6.37,0,0,0-.67-3.44,2.4,2.4,0,0,0-2.2-1.09,3.89,3.89,0,0,0-1.66.37,5.45,5.45,0,0,0-1.39.93c0,.26,0,.51,0,.77s0,.52,0,.8v6.78c0,.35,0,.72,0,1.09a8.64,8.64,0,0,1-.11,1.13l1,0,.89,0v1.57Z"/><path class="cls-1" d="M128.69,35.64a7.2,7.2,0,0,1-3.71-1A6.79,6.79,0,0,1,122.39,32a8.69,8.69,0,0,1-1-4.16,8.35,8.35,0,0,1,.93-3.88A7.58,7.58,0,0,1,125,21a6.9,6.9,0,0,1,3.91-1.12,7,7,0,0,1,2.35.39,5.73,5.73,0,0,1,2,1.2,5.52,5.52,0,0,1,1.37,2.1,8.51,8.51,0,0,1,.5,3.12l-10.18.18a13,13,0,0,0,.46,3.58,4.82,4.82,0,0,0,1.5,2.43,4.08,4.08,0,0,0,2.69.86,6,6,0,0,0,1.7-.28,6.78,6.78,0,0,0,1.72-.82,5.59,5.59,0,0,0,1.38-1.27l.91.8a7.11,7.11,0,0,1-2,2.08,7.83,7.83,0,0,1-2.35,1.07A8.75,8.75,0,0,1,128.69,35.64Zm-3.64-10.3h6.84a6.18,6.18,0,0,0-.31-2,3.1,3.1,0,0,0-1-1.42,2.63,2.63,0,0,0-1.66-.52,3.55,3.55,0,0,0-2.58,1A5.24,5.24,0,0,0,125.05,25.34Z"/><path class="cls-1" d="M137,33.92a1.54,1.54,0,0,0,1.24-.41,2,2,0,0,0,.43-1.15c.05-.5.08-1.07.08-1.72V24.51c0-.33,0-.68,0-1a8.54,8.54,0,0,1,.11-1.1c-.34,0-.7,0-1.07,0l-1,0V20.9h1a5.11,5.11,0,0,0,1.89-.27,3.12,3.12,0,0,0,1-.56h1c0,.28.07.66.09,1.16s0,1,.06,1.65a7.74,7.74,0,0,1,1.31-1.49,7.44,7.44,0,0,1,1.63-1.08,4.15,4.15,0,0,1,1.82-.42,2.58,2.58,0,0,1,1.55.49,2,2,0,0,1,.51,2.28,1.52,1.52,0,0,1-.54.67,1.56,1.56,0,0,1-1,.26,1.5,1.5,0,0,1-1.54-1.65,2.52,2.52,0,0,0-1.42.41,6.06,6.06,0,0,0-1.31,1.14,6.56,6.56,0,0,0-1,1.56l0,6.42c0,.35,0,.72,0,1.09s0,.75-.09,1.13l1,0,.9,0v1.57H137Z"/><path class="cls-1" d="M157.07,35.64a7.54,7.54,0,0,1-3.79-1,7,7,0,0,1-2.67-2.64,7.61,7.61,0,0,1-1-3.93,8.71,8.71,0,0,1,1-4.24A7.61,7.61,0,0,1,153.28,21,6.92,6.92,0,0,1,157,19.89a7.53,7.53,0,0,1,3.79,1,7.13,7.13,0,0,1,2.68,2.66,7.66,7.66,0,0,1,1,3.92,9,9,0,0,1-1,4.21,7.67,7.67,0,0,1-2.65,2.93A7,7,0,0,1,157.07,35.64Zm.21-1.51a2.92,2.92,0,0,0,2.24-.86,4.87,4.87,0,0,0,1.15-2.2,11.24,11.24,0,0,0,.34-2.8,13.84,13.84,0,0,0-.22-2.5,8.82,8.82,0,0,0-.7-2.23,4.11,4.11,0,0,0-1.23-1.6,2.87,2.87,0,0,0-1.85-.6,3.1,3.1,0,0,0-2.26.86,5,5,0,0,0-1.27,2.21,9.87,9.87,0,0,0-.4,2.85,12,12,0,0,0,.44,3.32,6.22,6.22,0,0,0,1.38,2.57A3,3,0,0,0,157.28,34.13Z"/></g></g></svg>