<svg xmlns="http://www.w3.org/2000/svg" viewBox="0 0 109.68 86.3"><defs><style>.cls-1{fill:#fff;}</style></defs><g id="Слой_2" data-name="Слой 2"><g id="Слой_1-2" data-name="Слой 1"><path class="cls-1" d="M67.13,16.69c-4.75,1.19-8.73-.93-12.58-3s-7.64-4.07-12.46-3.37c-5.1.75-9.67,4.33-9.8,7.66-.12,3.48,4.42,7.22,9.73,8s9.1-1.48,12.88-3.67,7.64-4.46,12.47-3.24a18.08,18.08,0,0,1,11.07,7.85,15.51,15.51,0,0,0,.2-2.92A23.91,23.91,0,0,0,75.3,11.8l-.5.41A19.36,19.36,0,0,1,67.13,16.69Z"/><path class="cls-1" d="M54.52,2.74A14.83,14.83,0,0,1,61.6,1.38a12.64,12.64,0,0,1,1.7.24A24,24,0,0,0,42.87,3.07,7.31,7.31,0,0,0,47.45,4.3,17.67,17.67,0,0,0,54.52,2.74Z"/><path class="cls-1" d="M42.87,8.29a19.08,19.08,0,0,1,10.51,2.47c3.17,1.64,6.45,3.34,10.68,3.43,3.32.08,7.08-1.78,8.16-3.48a1.2,1.2,0,0,0,.19-1.2A10.43,10.43,0,0,0,65,3.76c-4.1-1-7.52.11-10.83,1.21-3.46,1.16-6.73,2.26-10.57,1a14.53,14.53,0,0,1-3-1.44,24.11,24.11,0,0,0-6,6.18L35,10.5A19.22,19.22,0,0,1,42.87,8.29Z"/><path class="cls-1" d="M42.37,31.22a11.5,11.5,0,0,1,2.76-.33c3.63,0,7,1.67,10.35,3.3,3.89,1.92,7.91,3.9,12.37,3.29,4.88-.67,9.1-4,9.22-7.21.13-3.55-4.71-7.65-10.15-8.6-5.67-1-9.45,1.41-13.12,3.73s-7.92,3.92-13.07,2.68c-4.22-1-7.56-3.63-10.07-5.74q-.06.84-.06,1.68A23.85,23.85,0,0,0,34,36.31c.27-.21.55-.45.81-.66C36.52,34.21,39.14,32,42.37,31.22Z"/><path class="cls-1" d="M62.3,43.34a18.42,18.42,0,0,0-7.19,1.58,15.19,15.19,0,0,1-7.19,1.37,18.19,18.19,0,0,1-4.47-1A24,24,0,0,0,67,44.6a7.5,7.5,0,0,0-4.58-1.26Z"/><path class="cls-1" d="M56.12,36.94C53,35.3,49.25,33.16,45.05,33.08c-4.47-.08-8.24,2.84-8.52,4.86s3.63,4.9,8,6c4.07,1,7.47-.11,10.75-1.22a21.93,21.93,0,0,1,7-1.55,10.94,10.94,0,0,1,3.52.58,14.82,14.82,0,0,1,3.14,1.55,24.23,24.23,0,0,0,5.64-5.92c-2.16,1.08-5.06,2.51-8,2.68C62.58,40.31,59.45,38.67,56.12,36.94Z"/><path class="cls-1" d="M0,84.52a2.54,2.54,0,0,0,1.41-.41A1.69,1.69,0,0,0,2,83a11.06,11.06,0,0,0,.12-1.8V69q0-.67,0-1.29t.06-1l-1.09,0L0,66.73V65.1l3.57,0H7.22a14.89,14.89,0,0,1,4.74.66,6.25,6.25,0,0,1,3,2A5.55,5.55,0,0,1,16,71.11a6.59,6.59,0,0,1-.41,2.4,6.19,6.19,0,0,1-1.51,2.26,7.7,7.7,0,0,1-2.89,1.71,13.68,13.68,0,0,1-4.54.65,6.8,6.8,0,0,1-.68,0c-.26,0-.5,0-.74,0v3.7c0,.55,0,1,0,1.45a9.68,9.68,0,0,1-.09,1l.9,0,.94,0,.82,0v1.65H0Zm5.24-8c.31,0,.6.06.84.07l.88,0A6.68,6.68,0,0,0,9.89,76a4.69,4.69,0,0,0,2-1.81,5.41,5.41,0,0,0,.71-2.81A5.76,5.76,0,0,0,12.15,69,3.68,3.68,0,0,0,11,67.52a4.68,4.68,0,0,0-1.73-.77,9.34,9.34,0,0,0-2.08-.22,2,2,0,0,0-1.3.34,1.52,1.52,0,0,0-.52,1,11.81,11.81,0,0,0-.1,1.74Z"/><path class="cls-1" d="M18.17,84.58a1.58,1.58,0,0,0,1.24-.41A2.07,2.07,0,0,0,19.84,83a17,17,0,0,0,.08-1.72V75.17c0-.34,0-.68,0-1A8.39,8.39,0,0,1,20,73l-1.07,0-1,0V71.56h1a5.11,5.11,0,0,0,1.89-.27,3.33,3.33,0,0,0,1-.56h1c0,.27.07.66.09,1.15s0,1.05.06,1.66a7.74,7.74,0,0,1,1.31-1.49A7.14,7.14,0,0,1,25.94,71a4.28,4.28,0,0,1,1.82-.41,2.51,2.51,0,0,1,1.55.49A1.81,1.81,0,0,1,30,72.62a2.1,2.1,0,0,1-.16.7,1.5,1.5,0,0,1-.54.66,1.57,1.57,0,0,1-2.5-1.39,2.46,2.46,0,0,0-1.42.42,5.56,5.56,0,0,0-1.31,1.14,6.86,6.86,0,0,0-1,1.55l0,6.42c0,.36,0,.72,0,1.1s-.05.75-.08,1.12l1,0,.9,0v1.57H18.17Z"/><path class="cls-1" d="M31.9,84.58a1.6,1.6,0,0,0,1.25-.41A2.14,2.14,0,0,0,33.58,83c0-.49.07-1.06.07-1.72V75.17q0-.48,0-1T33.77,73l-1.07.06-1,.06v-1.6a12.93,12.93,0,0,0,2.11-.14A6,6,0,0,0,35,71.11a1.92,1.92,0,0,0,.65-.38h1.1V82.12c0,.36,0,.72,0,1.1a8.47,8.47,0,0,1-.1,1.12l1,0,.91,0v1.57H31.9ZM35.07,68a1.72,1.72,0,0,1-1.3-.58A2,2,0,0,1,33.24,66a1.9,1.9,0,0,1,.56-1.4A1.71,1.71,0,0,1,35.07,64a1.66,1.66,0,0,1,1.29.58,2,2,0,0,1,.52,1.4,2.08,2.08,0,0,1-.52,1.41A1.7,1.7,0,0,1,35.07,68Z"/><path class="cls-1" d="M40.63,85.82V84.58a1.6,1.6,0,0,0,1.25-.41A2.07,2.07,0,0,0,42.31,83c0-.49.07-1.06.07-1.72V75.17c0-.34,0-.68,0-1A8.33,8.33,0,0,1,42.5,73l-1.07.06-1,.06v-1.6a12.49,12.49,0,0,0,2.09-.14,5.36,5.36,0,0,0,1.16-.31,2,2,0,0,0,.63-.38h1a4.37,4.37,0,0,1,.08.69c0,.27,0,.55,0,.85A8.22,8.22,0,0,1,47.53,71a6.08,6.08,0,0,1,2.28-.47,5,5,0,0,1,2.4.52,3.66,3.66,0,0,1,1.51,1.46,9.81,9.81,0,0,1,2.34-1.42,6.42,6.42,0,0,1,2.54-.56,4.57,4.57,0,0,1,3.75,1.5q1.21,1.49,1.16,5v5.09c0,.36,0,.72,0,1.1s0,.75-.08,1.12l1,0,.9,0v1.57H58.75V84.58a1.47,1.47,0,0,0,1.17-.41A2.22,2.22,0,0,0,60.33,83a17,17,0,0,0,.08-1.72V77a6.41,6.41,0,0,0-.77-3.43,2.48,2.48,0,0,0-2.25-1.07,3.63,3.63,0,0,0-1.69.36,6.4,6.4,0,0,0-1.45.92,6.53,6.53,0,0,1,.21,1.12c0,.4.06.82.06,1.27v3q0,1.5,0,3c0,.36,0,.72,0,1.1a8.47,8.47,0,0,1-.1,1.12l1,0,.93,0v1.57h-6.6V84.58a1.55,1.55,0,0,0,1.23-.41A2.06,2.06,0,0,0,51.3,83a17,17,0,0,0,.08-1.72V77a6.33,6.33,0,0,0-.67-3.43,2.42,2.42,0,0,0-2.2-1.1,4,4,0,0,0-1.66.37,5.08,5.08,0,0,0-1.39.94c0,.25,0,.51,0,.77s0,.52,0,.8v6.77c0,.36,0,.72,0,1.1a8.47,8.47,0,0,1-.1,1.12l1,0,.89,0v1.57Z"/><path class="cls-1" d="M73.87,86.3a7.11,7.11,0,0,1-3.71-1,6.73,6.73,0,0,1-2.59-2.72,8.55,8.55,0,0,1-.95-4.16,8.31,8.31,0,0,1,.93-3.87,7.61,7.61,0,0,1,2.62-2.92,6.94,6.94,0,0,1,3.91-1.11,7,7,0,0,1,2.35.39,5.44,5.44,0,0,1,2,1.19,5.66,5.66,0,0,1,1.38,2.11,8.65,8.65,0,0,1,.5,3.12l-10.18.18a12.64,12.64,0,0,0,.46,3.58,4.82,4.82,0,0,0,1.49,2.42,4.07,4.07,0,0,0,2.7.86,5.64,5.64,0,0,0,1.7-.28,7.29,7.29,0,0,0,1.72-.81A5.41,5.41,0,0,0,79.55,82l.92.8a7.15,7.15,0,0,1-2,2.09A8.09,8.09,0,0,1,76.08,86,9.23,9.23,0,0,1,73.87,86.3ZM70.23,76h6.84a6.41,6.41,0,0,0-.31-2,3,3,0,0,0-1-1.42A2.53,2.53,0,0,0,74.14,72a3.55,3.55,0,0,0-2.58,1A5.21,5.21,0,0,0,70.23,76Z"/><path class="cls-1" d="M82.17,84.58a1.58,1.58,0,0,0,1.24-.41A2.07,2.07,0,0,0,83.84,83a17,17,0,0,0,.08-1.72V75.17c0-.34,0-.68,0-1A8.33,8.33,0,0,1,84,73l-1.06,0-1,0V71.56h1a5.11,5.11,0,0,0,1.89-.27,3.33,3.33,0,0,0,1-.56h1c0,.27.07.66.08,1.15s0,1.05.06,1.66a8.15,8.15,0,0,1,1.32-1.49A6.93,6.93,0,0,1,89.94,71a4.28,4.28,0,0,1,1.82-.41,2.51,2.51,0,0,1,1.55.49A1.81,1.81,0,0,1,94,72.62a2.1,2.1,0,0,1-.16.7,1.5,1.5,0,0,1-.54.66,1.57,1.57,0,0,1-2.5-1.39,2.43,2.43,0,0,0-1.42.42A5.81,5.81,0,0,0,88,74.15a7.17,7.17,0,0,0-1,1.55l0,6.42c0,.36,0,.72,0,1.1s0,.75-.09,1.12l1,0,.9,0v1.57H82.17Z"/><path class="cls-1" d="M102.25,86.3a7.64,7.64,0,0,1-3.79-1,7.1,7.1,0,0,1-2.68-2.65,7.64,7.64,0,0,1-1-3.92,8.89,8.89,0,0,1,1-4.25,7.76,7.76,0,0,1,2.68-2.91,6.92,6.92,0,0,1,3.76-1.07,7.52,7.52,0,0,1,3.79,1,7.15,7.15,0,0,1,2.68,2.67,7.64,7.64,0,0,1,1,3.92,8.79,8.79,0,0,1-1,4.2,7.52,7.52,0,0,1-2.65,2.93A6.91,6.91,0,0,1,102.25,86.3Zm.21-1.51a2.92,2.92,0,0,0,2.23-.86,4.83,4.83,0,0,0,1.16-2.21,11.65,11.65,0,0,0,.34-2.79,14.71,14.71,0,0,0-.22-2.5,8.9,8.9,0,0,0-.7-2.24,4.47,4.47,0,0,0-1.23-1.6,2.93,2.93,0,0,0-1.85-.59,3.08,3.08,0,0,0-2.26.86,5,5,0,0,0-1.27,2.2,9.89,9.89,0,0,0-.4,2.86,12,12,0,0,0,.44,3.32,6.17,6.17,0,0,0,1.38,2.57A3,3,0,0,0,102.46,84.79Z"/></g></g></svg>